<svg width="23" height="28" viewBox="0 0 23 28" fill="none" xmlns="http://www.w3.org/2000/svg">
<path d="M23 22.6667V24H0V22.6667L2.55556 20V12C2.55556 7.86667 5.14944 4.22667 8.94444 3.05333V2.66667C8.94444 1.95942 9.21369 1.28115 9.69295 0.781048C10.1722 0.280951 10.8222 0 11.5 0C12.1778 0 12.8278 0.280951 13.3071 0.781048C13.7863 1.28115 14.0556 1.95942 14.0556 2.66667V3.05333C17.8506 4.22667 20.4444 7.86667 20.4444 12V20L23 22.6667ZM14.0556 25.3333C14.0556 26.0406 13.7863 26.7189 13.3071 27.219C12.8278 27.719 12.1778 28 11.5 28C10.8222 28 10.1722 27.719 9.69295 27.219C9.21369 26.7189 8.94444 26.0406 8.94444 25.3333" fill="#2BE092"/>
</svg>
