<svg width="43" height="43" viewBox="0 0 43 43" fill="none" xmlns="http://www.w3.org/2000/svg">
<rect x="-448" y="-1210" width="1943" height="1514" fill="#111217"/>
<g opacity="0.6">
<mask id="mask0_0_1" style="mask-type:alpha" maskUnits="userSpaceOnUse" x="-448" y="-1076" width="1943" height="1380">
<rect x="-448" y="-1076" width="1943" height="1380" fill="#0D1D1E"/>
</mask>
<g mask="url(#mask0_0_1)">
<g filter="url(#filter0_f_0_1)">
<path d="M1495 719C1495 1115.54 1061.16 1437 526 1437C-9.16391 1437 -443 1115.54 -443 719C-443 322.46 -9.16391 1 526 1C1061.16 1 1495 322.46 1495 719Z" fill="#12EB8E" fill-opacity="0.5"/>
</g>
</g>
</g>
<g filter="url(#filter1_i_0_1)">
<rect x="-33" y="-38" width="490" height="306" rx="13" fill="#161616"/>
</g>
<rect x="-32.5" y="-37.5" width="489" height="305" rx="12.5" stroke="#383838"/>
<rect width="43" height="43" rx="3" fill="#0E0F11"/>
<rect x="16.6699" y="17.5583" width="2.96985" height="13.675" transform="rotate(45 16.6699 17.5583)" fill="#0081F9"/>
<rect x="33.7637" y="13" width="2.96985" height="13.675" transform="rotate(45 33.7637 13)" fill="#0081F9"/>
<rect x="26.377" y="24.5789" width="2.96985" height="11.829" transform="rotate(135 26.377 24.5789)" fill="#0081F9"/>
<defs>
<filter id="filter0_f_0_1" x="-707" y="-263" width="2466" height="1964" filterUnits="userSpaceOnUse" color-interpolation-filters="sRGB">
<feFlood flood-opacity="0" result="BackgroundImageFix"/>
<feBlend mode="normal" in="SourceGraphic" in2="BackgroundImageFix" result="shape"/>
<feGaussianBlur stdDeviation="132" result="effect1_foregroundBlur_0_1"/>
</filter>
<filter id="filter1_i_0_1" x="-33" y="-38" width="490" height="306" filterUnits="userSpaceOnUse" color-interpolation-filters="sRGB">
<feFlood flood-opacity="0" result="BackgroundImageFix"/>
<feBlend mode="normal" in="SourceGraphic" in2="BackgroundImageFix" result="shape"/>
<feColorMatrix in="SourceAlpha" type="matrix" values="0 0 0 0 0 0 0 0 0 0 0 0 0 0 0 0 0 0 127 0" result="hardAlpha"/>
<feMorphology radius="1" operator="erode" in="SourceAlpha" result="effect1_innerShadow_0_1"/>
<feOffset/>
<feGaussianBlur stdDeviation="3.5"/>
<feComposite in2="hardAlpha" operator="arithmetic" k2="-1" k3="1"/>
<feColorMatrix type="matrix" values="0 0 0 0 0.149956 0 0 0 0 0.159499 0 0 0 0 0.159499 0 0 0 1 0"/>
<feBlend mode="normal" in2="shape" result="effect1_innerShadow_0_1"/>
</filter>
</defs>
</svg>
